<?xml version="1.0" encoding="UTF-8"?>
<svg width="94px" height="32px" viewBox="0 0 94 32" version="1.1" xmlns="http://www.w3.org/2000/svg" xmlns:xlink="http://www.w3.org/1999/xlink">
    <!-- Generator: Sketch 42 (36781) - http://www.bohemiancoding.com/sketch -->
    <title>Logo@1x</title>
    <desc>Created with Sketch.</desc>
    <defs>
        <polygon id="path-1" points="-3.87476432e-16 16.5767741 -3.87476432e-16 0.389470536 12.4960411 0.389470536 12.4960411 16.5767741 -6.67651698e-16 16.5767741"></polygon>
        <polygon id="path-3" points="0.0611839286 8.8125 5.74356786 8.8125 5.74356786 0.0567357143 0.0611839286 0.0567357143 0.0611839286 8.8125"></polygon>
    </defs>
    <g id="Page" stroke="none" stroke-width="1" fill="none" fill-rule="evenodd">
        <g id="Landing" transform="translate(-35.000000, -17.000000)">
            <g id="Navbar" transform="translate(35.000000, 17.000000)">
                <g id="Logo">
                    <g id="Group-3" transform="translate(0.000000, 0.030886)">
                        <mask id="mask-2" fill="white">
                            <use xlink:href="#path-1"></use>
                        </mask>
                        <g id="Clip-2"></g>
                        <path d="M12.4960411,10.6551937 C12.4960411,14.0358366 9.93160357,16.5767741 6.87744286,16.5767741 C5.64201429,16.5767741 4.6159875,16.250292 3.77670179,15.714408 C3.77670179,15.714408 1.89670179,16.297292 -8.39285714e-05,16.297292 L-8.39285714e-05,0.972354464 C1.89670179,0.972354464 3.77670179,0.389470536 3.77670179,0.389470536 L3.77670179,5.64297946 C4.6159875,5.10667589 5.64201429,4.78019375 6.87744286,4.78019375 C9.93160357,4.78019375 12.4960411,7.29805089 12.4960411,10.6551937 M8.9399875,10.720658 C8.9399875,9.13566696 7.78722857,7.83897054 6.2022375,7.83897054 C5.33777321,7.83897054 4.49722857,8.10292589 3.77670179,8.94347054 L3.77670179,12.5456848 C4.49722857,13.3862295 5.33777321,13.6266848 6.2022375,13.6266848 C7.78722857,13.6266848 8.9399875,12.3534884 8.9399875,10.720658" id="Fill-1" fill="#FFFFFF" mask="url(#mask-2)"></path>
                    </g>
                    <path d="M59.4968804,10.6862893 C59.4968804,14.0673518 56.9324429,16.6082893 53.8778625,16.6082893 C52.6424339,16.6082893 51.6164071,16.2822268 50.7767018,15.7459232 C50.7767018,15.7459232 48.8971214,16.3288071 46.9999161,16.3288071 L46.9999161,1.00261071 C48.8971214,1.00261071 50.7767018,0.419726786 50.7767018,0.419726786 L50.7767018,5.67365536 C51.6164071,5.13735179 52.6424339,4.81086964 53.8778625,4.81086964 C56.9324429,4.81086964 59.4968804,7.32914643 59.4968804,10.6862893 M55.9399875,10.7513339 C55.9399875,9.16634286 54.7876482,7.86964643 53.2026571,7.86964643 C52.3377732,7.86964643 51.4972286,8.13360179 50.7767018,8.97414643 L50.7767018,12.5763607 C51.4972286,13.417325 52.3377732,13.6573607 53.2026571,13.6573607 C54.7876482,13.6573607 55.9399875,12.3845839 55.9399875,10.7513339" id="Fill-4" fill="#FFFFFF"></path>
                    <path d="M72.6943125,10.7274562 C72.6943125,14.2818313 70.0526607,16.923483 66.3782679,16.923483 C62.703875,16.923483 60.0622232,14.2818313 60.0622232,10.7274562 C60.0622232,7.22134018 62.703875,4.65144732 66.3782679,4.65144732 C70.0526607,4.65144732 72.6943125,7.22134018 72.6943125,10.7274562 M69.0199196,10.7513759 C69.0199196,9.23856339 67.9632589,8.01404554 66.4021875,8.01404554 C64.8171964,8.01404554 63.7609554,9.23856339 63.7609554,10.7513759 C63.7609554,12.3124473 64.8171964,13.5608848 66.4021875,13.5608848 C67.9632589,13.5608848 69.0199196,12.3124473 69.0199196,10.7513759" id="Fill-6" fill="#FFFFFF"></path>
                    <path d="M76.7946429,4.89572143 L76.7946429,6.11100714 C77.8752232,5.18149821 79.1819911,4.60365 80.9910714,4.60365 L80.9910714,8.47317679 C79.0065804,8.5487125 77.74975,9.07620357 76.7946429,10.0313107 L76.7946429,16.5429089 L73.0178571,16.5429089 L73.0178571,5.49623036 C74.9146429,5.49623036 76.7946429,4.89572143 76.7946429,4.89572143" id="Fill-8" fill="#FFFFFF"></path>
                    <path d="M30.7369929,5.59199286 C28.7885911,5.59199286 26.856975,4.99148393 26.856975,4.99148393 L26.856975,16.5429929 L30.6337607,16.5429929 L30.6337607,9.09810893 C31.2002786,8.35408214 31.7672161,8.0657875 32.3572339,8.0657875 C33.6081893,8.0657875 34.4105464,8.85807321 34.4105464,10.5148232 L34.4105464,16.5429929 L38.606975,16.5429929 L38.606975,9.89081429 C38.606975,9.60251964 38.583475,9.31464464 38.5595554,9.02635 C39.12985,8.32974286 39.7236446,8.0657875 40.3174393,8.0657875 C41.5998679,8.0657875 42.3837607,8.85807321 42.3837607,10.5148232 L42.3837607,16.5429929 L46.1605464,16.5429929 L46.1605464,9.89081429 C46.1605464,6.576475 44.1009393,4.53533214 41.3229036,4.53533214 C39.5985911,4.53533214 38.42485,5.01582321 37.2036893,6.09640357 C36.3409036,5.08758214 35.0958232,4.53533214 33.6350464,4.53533214 C32.3417071,4.53533214 31.5271804,4.919725 30.7369929,5.59199286" id="Fill-10" fill="#FFFFFF"></path>
                    <path d="M26.0178571,16.5631357 C24.064,16.5631357 22.1273482,15.9147875 22.1273482,15.9147875 C21.2628839,16.4670375 20.2062232,16.8031714 18.9334464,16.8031714 C15.7873839,16.8031714 13.1457321,14.1854393 13.1457321,10.7275821 C13.1457321,7.24538571 15.7873839,4.65157321 18.9334464,4.65157321 C20.2062232,4.65157321 21.2628839,4.98812679 22.1273482,5.54037679 C24.064,5.54037679 26.0178571,4.91594821 26.0178571,4.91594821 L26.0178571,16.5631357 Z M22.2410714,12.5286893 L22.2410714,8.926475 C21.5205446,8.08593036 20.68,7.82155536 19.8155357,7.82155536 C18.2305446,7.82155536 17.0777857,9.11867143 17.0777857,10.7275821 C17.0777857,12.3364929 18.2305446,13.6092696 19.8155357,13.6092696 C20.68,13.6092696 21.5205446,13.3692339 22.2410714,12.5286893 L22.2410714,12.5286893 Z" id="Fill-12" fill="#FFFFFF"></path>
                    <path d="M94,16.5631357 C92.0461429,16.5631357 90.1099107,15.9147875 90.1099107,15.9147875 C89.2454464,16.4670375 88.1887857,16.8031714 86.9160089,16.8031714 C83.7699464,16.8031714 81.1282946,14.1854393 81.1282946,10.7275821 C81.1282946,7.24538571 83.7699464,4.65157321 86.9160089,4.65157321 C88.1887857,4.65157321 89.2454464,4.98812679 90.1099107,5.54037679 C92.0461429,5.54037679 94,4.91594821 94,4.91594821 L94,16.5631357 Z M89.8035714,12.5286893 L89.8035714,8.926475 C89.0830446,8.08593036 88.2425,7.82155536 87.3780357,7.82155536 C85.7930446,7.82155536 84.6402857,9.11867143 84.6402857,10.7275821 C84.6402857,12.3364929 85.7930446,13.6092696 87.3780357,13.6092696 C88.2425,13.6092696 89.0830446,13.3692339 89.8035714,12.5286893 L89.8035714,12.5286893 Z" id="Fill-14" fill="#FFFFFF"></path>
                    <path d="M37.6441045,25.9876848 C37.6441045,25.7220509 37.6264795,25.4690062 37.5912295,25.227292 C37.5555598,24.986417 37.4934527,24.7728187 37.4053277,24.586917 C37.3163634,24.4010152 37.1938277,24.2541402 37.0368813,24.1454527 C36.8795152,24.0371848 36.6793455,23.9830509 36.4359527,23.9830509 C36.2236134,23.9830509 36.0473634,24.017042 35.908042,24.0858634 C35.7687205,24.1542652 35.6369527,24.2570777 35.513158,24.3947205 C35.1770241,24.7530955 35.0087473,25.3326223 35.0087473,26.1337205 C35.0087473,26.5143366 35.0519705,26.8341045 35.1379973,27.0930241 C35.2244438,27.3515241 35.3360688,27.5609259 35.473292,27.7199705 C35.6105152,27.8794348 35.759908,27.9948366 35.9214705,28.0653366 C36.083033,28.1362562 36.2412384,28.1715062 36.3960866,28.1715062 C36.5861848,28.1715062 36.7578188,28.1316402 36.9105688,28.051908 C37.0633188,27.9725955 37.1938277,27.8454437 37.3025152,27.6704527 C37.410783,27.4958812 37.4947116,27.2701134 37.5547205,26.9931491 C37.6143098,26.7166045 37.6441045,26.3813098 37.6441045,25.9876848 L37.6441045,25.9876848 Z M39.1577563,28.470292 C39.1577563,28.5810777 39.168667,28.7015152 39.190908,28.8320241 C39.2127295,28.962533 39.2416848,29.0968187 39.2773545,29.2336223 L37.8367205,29.2336223 C37.7792295,29.1941759 37.7414616,29.134167 37.7238366,29.0544348 C37.705792,28.9751223 37.6969795,28.9042027 37.6969795,28.8420955 L37.6969795,28.6494795 C37.6264795,28.7778902 37.5320598,28.8907741 37.4149795,28.9881312 C37.2978991,29.0854884 37.1707473,29.1673187 37.0331045,29.2336223 C36.8963009,29.3003455 36.7532027,29.3511223 36.6050688,29.3863723 C36.4569348,29.422042 36.3142563,29.439667 36.177033,29.439667 C35.8052295,29.439667 35.455667,29.3721045 35.1279259,29.2369795 C34.8006045,29.1022741 34.514408,28.8987473 34.2684973,28.6263991 C34.0230063,28.3540509 33.828292,28.0137205 33.6843545,27.6041491 C33.540417,27.1945777 33.468658,26.7132473 33.468658,26.160158 C33.468658,25.6246937 33.5416759,25.1458812 33.6877116,24.7228812 C33.8337473,24.3003009 34.0305598,23.9431848 34.2785688,23.6511134 C34.526158,23.359042 34.8127741,23.1353723 35.1379973,22.9805241 C35.4636402,22.8256759 35.8052295,22.748042 36.1636045,22.748042 C36.2878188,22.748042 36.4162295,22.7635687 36.5488366,22.7946223 C36.6814438,22.8256759 36.8132116,22.8688991 36.9437205,22.924292 C37.0742295,22.9796848 37.1984438,23.0468277 37.3155241,23.1265598 C37.4326045,23.206292 37.5379348,23.2927384 37.6306759,23.3854795 L37.6306759,20.0598098 L39.343658,20.0598098 C39.343658,20.1084884 39.3344259,20.1483545 39.3168009,20.1789884 C39.2991759,20.210042 39.280292,20.2389973 39.2605688,20.2654348 C39.2404259,20.2918723 39.2194438,20.3195687 39.1976223,20.3485241 C39.1753813,20.3770598 39.1619527,20.4114705 39.1577563,20.4513366 L39.1577563,28.470292 Z" id="Fill-16" fill="#FFFFFF"></path>
                    <path d="M44.8265857,25.3703062 C44.8265857,25.1709759 44.7967911,24.9821366 44.7367821,24.8025295 C44.6771929,24.623342 44.5928446,24.4663955 44.4845768,24.3312705 C44.3763089,24.1965652 44.2432821,24.0891366 44.0863357,24.0094045 C43.9293893,23.9296723 43.7531393,23.8898062 43.5588446,23.8898062 C43.3729429,23.8898062 43.2013089,23.9254759 43.0439429,23.9963955 C42.8869964,24.0668955 42.7497732,24.1663509 42.6326929,24.2947616 C42.5151929,24.4231723 42.4203536,24.5780205 42.3469161,24.7593062 C42.2738982,24.9410116 42.2243804,25.1445384 42.1975232,25.3703062 L44.8265857,25.3703062 Z M43.6381571,22.747958 C44.0141571,22.747958 44.3662375,22.8146812 44.6939786,22.9472884 C45.0213,23.0798955 45.3079161,23.2758687 45.5534071,23.5347884 C45.7988982,23.793708 45.9923536,24.116833 46.1341929,24.5041634 C46.2760321,24.8910741 46.3469518,25.3392527 46.3469518,25.8482795 C46.3469518,25.9590652 46.3423357,26.067333 46.3335232,26.1735027 C46.3242911,26.2796723 46.3154786,26.3837437 46.3066661,26.485717 L42.1446482,26.485717 C42.1798982,26.7907973 42.2508179,27.0530741 42.3569875,27.2721277 C42.4631571,27.4911812 42.5915679,27.6728866 42.7422196,27.8164045 C42.8924518,27.960342 43.0598893,28.0665116 43.2432732,28.1349134 C43.4270768,28.2037348 43.6138179,28.2377259 43.8043357,28.2377259 C44.0917911,28.2377259 44.3737911,28.1726812 44.6507554,28.0421723 C44.9273,27.9116634 45.1652375,27.7203062 45.3641482,27.4681009 L46.2072107,28.3111634 C45.5655768,29.0723955 44.7644786,29.4530116 43.8043357,29.4530116 C43.3486036,29.4530116 42.9268625,29.3774759 42.5395321,29.2272437 C42.1522018,29.0770116 41.8181661,28.8596366 41.537425,28.5767973 C41.2562643,28.2935384 41.0359518,27.947333 40.8764875,27.5377616 C40.7174429,27.1281902 40.6377107,26.6644848 40.6377107,26.1470652 C40.6377107,25.6204134 40.7128268,25.1470562 40.8634786,24.7261545 C41.0141304,24.306092 41.2231125,23.9498152 41.4908446,23.6573241 C41.7585768,23.3656723 42.0749875,23.1411634 42.4400768,22.9837973 C42.8051661,22.8268509 43.2046661,22.747958 43.6381571,22.747958 L43.6381571,22.747958 Z" id="Fill-18" fill="#FFFFFF"></path>
                    <path d="M46.9973563,22.8874893 L48.8362312,22.8874893 C48.8362312,22.9361679 48.8307759,22.9772929 48.8194455,23.0104446 C48.8085348,23.0435964 48.7976241,23.0759089 48.7862937,23.1065429 C48.775383,23.1375964 48.7640527,23.1694893 48.753142,23.2026411 C48.7422312,23.2362125 48.7367759,23.2748196 48.7367759,23.3188821 L50.1769902,27.3814446 L50.7942848,25.58915 C50.9537491,25.1246054 51.101883,24.6546054 51.2391062,24.1787304 C51.3763295,23.7028554 51.485017,23.2723018 51.5643295,22.8874893 L53.018392,22.8874893 C52.9122223,23.3432214 52.7804545,23.8182571 52.623508,24.3117571 C52.466142,24.8048375 52.2814991,25.2995964 52.0691598,25.7951946 L50.6549634,29.2337482 L49.4069455,29.2337482 L46.9973563,22.8874893 Z" id="Fill-20" fill="#FFFFFF"></path>
                    <path d="M57.8779402,25.3703062 C57.8779402,25.1709759 57.8481455,24.9821366 57.7881366,24.8025295 C57.7285473,24.623342 57.6441991,24.4663955 57.5359313,24.3312705 C57.4276634,24.1965652 57.2946366,24.0891366 57.1376902,24.0094045 C56.9807438,23.9296723 56.8044938,23.8898062 56.6101991,23.8898062 C56.4242973,23.8898062 56.2526634,23.9254759 56.0952973,23.9963955 C55.9383509,24.0668955 55.8011277,24.1663509 55.6840473,24.2947616 C55.5665473,24.4231723 55.471708,24.5780205 55.3982705,24.7593062 C55.3252527,24.9410116 55.2757348,25.1445384 55.2488777,25.3703062 L57.8779402,25.3703062 Z M56.6895116,22.747958 C57.0655116,22.747958 57.417592,22.8146812 57.745333,22.9472884 C58.0726545,23.0798955 58.3592705,23.2758687 58.6047616,23.5347884 C58.8502527,23.793708 59.043708,24.116833 59.1855473,24.5041634 C59.3273866,24.8910741 59.3983063,25.3392527 59.3983063,25.8482795 C59.3983063,25.9590652 59.3936902,26.067333 59.3848777,26.1735027 C59.3756455,26.2796723 59.366833,26.3837437 59.3580205,26.485717 L55.1960027,26.485717 C55.2312527,26.7907973 55.3021723,27.0530741 55.408342,27.2721277 C55.5145116,27.4911812 55.6429223,27.6728866 55.7935741,27.8164045 C55.9438063,27.960342 56.1112438,28.0665116 56.2946277,28.1349134 C56.4784313,28.2037348 56.6651723,28.2377259 56.8556902,28.2377259 C57.1431455,28.2377259 57.4251455,28.1726812 57.7021098,28.0421723 C57.9786545,27.9116634 58.216592,27.7203062 58.4155027,27.4681009 L59.2585652,28.3111634 C58.6169313,29.0723955 57.815833,29.4530116 56.8556902,29.4530116 C56.399958,29.4530116 55.978217,29.3774759 55.5908866,29.2272437 C55.2035563,29.0770116 54.8695205,28.8596366 54.5887795,28.5767973 C54.3076188,28.2935384 54.0873063,27.947333 53.927842,27.5377616 C53.7687973,27.1281902 53.6890652,26.6644848 53.6890652,26.1470652 C53.6890652,25.6204134 53.7641813,25.1470562 53.914833,24.7261545 C54.0654848,24.306092 54.274467,23.9498152 54.5421991,23.6573241 C54.8099313,23.3656723 55.126342,23.1411634 55.4914313,22.9837973 C55.8565205,22.8268509 56.2560205,22.747958 56.6895116,22.747958 L56.6895116,22.747958 Z" id="Fill-22" fill="#FFFFFF"></path>
                    <polygon id="Fill-24" fill="#FFFFFF" points="60.4343205 20.0596 63.6139545 20.0596 63.6139545 28.0521179 65.3533741 28.0521179 65.3533741 29.2338321 60.3478741 29.2338321 60.3478741 28.0521179 62.0868741 28.0521179 62.0868741 21.2413143 60.4343205 21.2413143"></polygon>
                    <path d="M70.584642,26.1204598 C70.584642,25.7750937 70.548133,25.4700134 70.4751152,25.2043795 C70.4020973,24.9387455 70.2992848,24.7142366 70.166258,24.530433 C70.0336509,24.3470491 69.8767045,24.207308 69.6949991,24.1124687 C69.5137134,24.0172098 69.3169009,23.9697902 69.104142,23.9697902 C68.8876063,23.9697902 68.6891152,24.0172098 68.5103473,24.1124687 C68.3307402,24.207308 68.1784098,24.3457902 68.0520973,24.5270759 C67.9262045,24.7087812 67.8275884,24.9286741 67.7566688,25.1875937 C67.6857491,25.4465134 67.6504991,25.7398437 67.6504991,26.0675848 C67.6504991,26.3949062 67.6844902,26.6903348 67.7533116,26.9534509 C67.822133,27.2169866 67.9203295,27.4414955 68.0487402,27.6273973 C68.1771509,27.8132991 68.3328384,27.956817 68.516642,28.0587902 C68.7004455,28.1607634 68.9052313,28.2115402 69.1309991,28.2115402 C69.5733027,28.2115402 69.9262223,28.0323527 70.189758,27.6739777 C70.4528741,27.315183 70.584642,26.7973437 70.584642,26.1204598 M69.144008,22.7482098 C69.5556777,22.7482098 69.9404902,22.8237455 70.2992848,22.9739777 C70.6576598,23.1242098 70.9707134,23.3424241 71.2384455,23.6277812 C71.5061777,23.9131384 71.7164188,24.2639598 71.8691688,24.6798259 C72.0219188,25.0961116 72.0978741,25.5673705 72.0978741,26.0940223 C72.0978741,26.6206741 72.022758,27.091933 71.8725259,27.5077991 C71.7218741,27.9236652 71.5149902,28.2757455 71.2518741,28.5632009 C70.9883384,28.8510759 70.6752848,29.0709687 70.3122938,29.2237187 C69.9493027,29.3764687 69.5556777,29.4528437 69.1309991,29.4528437 C68.7059009,29.4528437 68.3089188,29.3710134 67.9392134,29.206933 C67.569508,29.043692 67.246383,28.813308 66.9698384,28.5166205 C66.6932938,28.2203527 66.4763384,27.868692 66.319392,27.4612187 C66.1624455,27.0541652 66.0835527,26.6072455 66.0835527,26.1204598 C66.0835527,25.6382902 66.1645438,25.1909509 66.3261063,24.7797009 C66.4876688,24.3680312 66.7079813,24.0117545 66.9866241,23.7108705 C67.265267,23.4099866 67.5896509,23.1741473 67.9593563,23.0037723 C68.328642,22.8333973 68.7235259,22.7482098 69.144008,22.7482098" id="Fill-26" fill="#FFFFFF"></path>
                    <g id="Group-30" transform="translate(73.437500, 22.691600)">
                        <mask id="mask-4" fill="white">
                            <use xlink:href="#path-3"></use>
                        </mask>
                        <g id="Clip-29"></g>
                        <path d="M1.59455893,3.3093875 C1.59455893,3.7030125 1.62309464,4.03830714 1.68100536,4.31485179 C1.73807679,4.59181607 1.82032679,4.81716429 1.92649643,4.99215536 C2.03266607,5.16714643 2.16233571,5.29387857 2.31466607,5.37361071 C2.46741607,5.45334286 2.63905,5.49320893 2.82914821,5.49320893 C2.98399643,5.49320893 3.14346071,5.45795893 3.30712143,5.38703929 C3.47078214,5.31653929 3.620175,5.2011375 3.7553,5.04167321 C3.890425,4.88262857 4.00079107,4.67322679 4.0872375,4.41472679 C4.17368393,4.15580714 4.21690714,3.83603929 4.21690714,3.45542321 C4.21690714,2.76930714 4.09395179,2.24055714 3.84846071,1.86875357 C3.60255,1.49695 3.24963036,1.31104821 2.78928214,1.31104821 C2.54588929,1.31104821 2.34655893,1.36560179 2.19213036,1.47386964 C2.0368625,1.5821375 1.91516607,1.72817321 1.82704107,1.91197679 C1.73807679,2.09578036 1.67764821,2.30811964 1.64449643,2.54899464 C1.61134464,2.79070893 1.59455893,3.04375357 1.59455893,3.3093875 L1.59455893,3.3093875 Z M0.0611839286,0.196057143 L1.52825536,0.196057143 L1.52825536,0.846503571 C1.62980893,0.704664286 1.74269286,0.584226786 1.8664875,0.484771429 C1.99028214,0.385316071 2.1191125,0.303066071 2.25171964,0.239280357 C2.38432679,0.175075 2.51819286,0.128494643 2.65331786,0.0999589286 C2.78844286,0.0710035714 2.91979107,0.0567357143 3.04820179,0.0567357143 C3.42000536,0.0567357143 3.76872857,0.128494643 4.09395179,0.272432143 C4.419175,0.41595 4.70453214,0.632066071 4.95044286,0.919521429 C5.19593393,1.20739643 5.38938929,1.56912857 5.53080893,2.0051375 C5.67264821,2.44072679 5.74356786,2.9510125 5.74356786,3.53515536 C5.74356786,4.06600357 5.67055,4.53180714 5.52451429,4.93256607 C5.37847857,5.33290536 5.18250536,5.6682 4.93701429,5.93803036 C4.69110357,6.20828036 4.40700536,6.41054821 4.08388036,6.54525357 C3.76075536,6.68037857 3.42000536,6.74794107 3.06163036,6.74794107 C2.79599643,6.74794107 2.5303625,6.69170893 2.26514821,6.578825 C1.99951429,6.46552143 1.77584464,6.31445 1.59455893,6.12393214 L1.59455893,8.81258393 L0.0741928571,8.81258393 L0.0611839286,0.196057143 Z" id="Fill-28" fill="#FFFFFF" mask="url(#mask-4)"></path>
                    </g>
                    <path d="M84.5244223,25.3703062 C84.5244223,25.1709759 84.4946277,24.9821366 84.4346187,24.8025295 C84.3750295,24.623342 84.2906812,24.4663955 84.1824134,24.3312705 C84.0741455,24.1965652 83.9411187,24.0891366 83.7841723,24.0094045 C83.6272259,23.9296723 83.4509759,23.8898062 83.2566812,23.8898062 C83.0707795,23.8898062 82.8991455,23.9254759 82.7417795,23.9963955 C82.584833,24.0668955 82.4476098,24.1663509 82.3305295,24.2947616 C82.2130295,24.4231723 82.1181902,24.5780205 82.0447527,24.7593062 C81.9717348,24.9410116 81.922217,25.1445384 81.8953598,25.3703062 L84.5244223,25.3703062 Z M83.3359937,22.747958 C83.7119937,22.747958 84.0640741,22.8146812 84.3918152,22.9472884 C84.7191366,23.0798955 85.0057527,23.2758687 85.2512437,23.5347884 C85.4967348,23.793708 85.6901902,24.116833 85.8320295,24.5041634 C85.9738687,24.8910741 86.0447884,25.3392527 86.0447884,25.8482795 C86.0447884,25.9590652 86.0401723,26.067333 86.0313598,26.1735027 C86.0221277,26.2796723 86.0133152,26.3837437 86.0045027,26.485717 L81.8424848,26.485717 C81.8777348,26.7907973 81.9486545,27.0530741 82.0548241,27.2721277 C82.1609937,27.4911812 82.2894045,27.6728866 82.4400562,27.8164045 C82.5902884,27.960342 82.7577259,28.0665116 82.9411098,28.1349134 C83.1249134,28.2037348 83.3116545,28.2377259 83.5021723,28.2377259 C83.7896277,28.2377259 84.0716277,28.1726812 84.348592,28.0421723 C84.6251366,27.9116634 84.8630741,27.7203062 85.0619848,27.4681009 L85.9050473,28.3111634 C85.2634134,29.0723955 84.4623152,29.4530116 83.5021723,29.4530116 C83.0464402,29.4530116 82.6246991,29.3774759 82.2373687,29.2272437 C81.8500384,29.0770116 81.5160027,28.8596366 81.2352616,28.5767973 C80.9541009,28.2935384 80.7337884,27.947333 80.5743241,27.5377616 C80.4152795,27.1281902 80.3355473,26.6644848 80.3355473,26.1470652 C80.3355473,25.6204134 80.4106634,25.1470562 80.5613152,24.7261545 C80.711967,24.306092 80.9209491,23.9498152 81.1886812,23.6573241 C81.4564134,23.3656723 81.7728241,23.1411634 82.1379134,22.9837973 C82.5030027,22.8268509 82.9025027,22.747958 83.3359937,22.747958 L83.3359937,22.747958 Z" id="Fill-31" fill="#FFFFFF"></path>
                    <path d="M87.5649866,22.8874893 L89.1315134,22.8874893 L89.1315134,23.5782214 C89.2334866,23.4628196 89.3484687,23.3545518 89.4768795,23.2525786 C89.6052902,23.151025 89.7425134,23.0624804 89.8885491,22.9869446 C90.0345848,22.9118286 90.1881741,22.8530786 90.3497366,22.8111143 C90.5112991,22.76915 90.6762187,22.7481679 90.8440759,22.7481679 C91.2028705,22.7481679 91.5444598,22.8044 91.8701027,22.9172839 C92.1953259,23.0301679 92.4840402,23.2059982 92.7362455,23.4451946 L92.0257902,24.925275 C91.8046384,24.6201946 91.5922991,24.3969446 91.3887723,24.2551054 C91.1848259,24.1132661 90.9817187,24.0423464 90.7777723,24.0423464 C90.543192,24.0423464 90.3253973,24.0922839 90.1239687,24.1917393 C89.9225402,24.2916143 89.7458705,24.4263196 89.5931205,24.5971143 C89.4403705,24.7670696 89.3207723,24.9664 89.2347455,25.1942661 C89.1482991,25.4225518 89.1050759,25.6621679 89.1050759,25.9143732 L89.1050759,29.2337482 L87.5649866,29.2337482 L87.5649866,22.8874893 Z" id="Fill-33" fill="#FFFFFF"></path>
                </g>
            </g>
        </g>
    </g>
</svg>